<svg width="201" height="44" viewBox="0 0 201 44" fill="none" xmlns="http://www.w3.org/2000/svg">
<path d="M54.3167 29H57.0844V23.5923H62.7031V29H65.4644V15.9091H62.7031V21.3104H57.0844V15.9091H54.3167V29ZM68.6464 29H77.493V26.718H71.4141V23.5923H77.0136V21.3104H71.4141V18.1911H77.4674V15.9091H68.6464V29ZM82.8243 29L83.7958 26.0149H88.5196L89.4912 29H92.4571L87.9443 15.9091H84.3775L79.8583 29H82.8243ZM84.499 23.8544L86.1098 18.9006H86.212L87.8228 23.8544H84.499ZM94.9327 29H103.313V26.718H97.7005V15.9091H94.9327V29ZM103.912 18.1911H107.92V29H110.656V18.1911H114.664V15.9091H103.912V18.1911ZM117.334 29H120.102V23.5923H125.721V29H128.482V15.9091H125.721V21.3104H120.102V15.9091H117.334V29ZM143.832 19.674H146.484C146.446 17.3409 144.528 15.7301 141.614 15.7301C138.743 15.7301 136.64 17.3153 136.653 19.6932C136.647 21.6236 138.008 22.7294 140.22 23.2599L141.645 23.6179C143.071 23.9631 143.864 24.3722 143.87 25.2543C143.864 26.2131 142.956 26.8651 141.55 26.8651C140.111 26.8651 139.076 26.2003 138.986 24.8899H136.308C136.378 27.7216 138.405 29.1854 141.582 29.1854C144.778 29.1854 146.657 27.6577 146.663 25.2607C146.657 23.081 145.014 21.924 142.739 21.4126L141.562 21.1314C140.425 20.8693 139.472 20.4474 139.491 19.5078C139.491 18.6641 140.239 18.044 141.594 18.044C142.917 18.044 143.729 18.6449 143.832 19.674ZM148.926 18.1911H152.934V29H155.67V18.1911H159.678V15.9091H148.926V18.1911ZM173.798 22.4545C173.798 18.1719 171.139 15.7301 167.668 15.7301C164.178 15.7301 161.538 18.1719 161.538 22.4545C161.538 26.718 164.178 29.179 167.668 29.179C171.139 29.179 173.798 26.7372 173.798 22.4545ZM170.992 22.4545C170.992 25.2287 169.675 26.7308 167.668 26.7308C165.655 26.7308 164.344 25.2287 164.344 22.4545C164.344 19.6804 165.655 18.1783 167.668 18.1783C169.675 18.1783 170.992 19.6804 170.992 22.4545ZM176.748 29H179.516V24.3594H181.536L184.016 29H187.071L184.291 23.9119C185.78 23.2727 186.605 21.9751 186.605 20.1854C186.605 17.5838 184.885 15.9091 181.913 15.9091H176.748V29ZM179.516 22.1349V18.1719H181.383C182.981 18.1719 183.754 18.8814 183.754 20.1854C183.754 21.483 182.981 22.1349 181.395 22.1349H179.516ZM188.149 15.9091L192.924 24.3722V29H195.672V24.3722L200.447 15.9091H197.347L194.362 21.5469H194.234L191.249 15.9091H188.149Z" fill="white"/>
<path d="M42.2321 0H3.83929C1.71808 0 0 1.63456 0 3.65265V31.4128C0 33.4309 1.71808 35.0654 3.83929 35.0654H16.5569L14.8292 39.4486H13.0536C11.777 39.4486 10.75 40.4257 10.75 41.6402V43.1012C10.75 43.503 11.0955 43.8318 11.5179 43.8318H34.5536C34.9759 43.8318 35.3214 43.503 35.3214 43.1012V41.6402C35.3214 40.4257 34.2944 39.4486 33.0179 39.4486H31.2422L29.5145 35.0654H42.2321C44.3533 35.0654 46.0714 33.4309 46.0714 31.4128V3.65265C46.0714 1.63456 44.3533 0 42.2321 0ZM3.83929 1.46106H42.2321C43.5087 1.46106 44.5357 2.43814 44.5357 3.65265V26.2991H1.53571V3.65265C1.53571 2.43814 2.56272 1.46106 3.83929 1.46106ZM33.7857 41.6402V42.3707H12.2857V41.6402C12.2857 41.2384 12.6312 40.9097 13.0536 40.9097H33.0179C33.4402 40.9097 33.7857 41.2384 33.7857 41.6402ZM29.6105 39.4486H16.4609L18.1886 35.0654H27.8732L29.6105 39.4486ZM42.2321 33.6044H3.83929C2.56272 33.6044 1.53571 32.6273 1.53571 31.4128V27.7601H44.5357V31.4128C44.5357 32.6273 43.5087 33.6044 42.2321 33.6044Z" fill="#988B8B"/>
<path d="M23.0357 28.6592C21.7842 28.6592 20.7773 29.5987 20.7773 30.7665C20.7773 31.9343 21.7842 32.8738 23.0357 32.8738C24.2873 32.8738 25.2941 31.9343 25.2941 30.7665C25.2941 29.5987 24.2873 28.6592 23.0357 28.6592ZM23.0357 31.4689C22.6217 31.4689 22.2829 31.1528 22.2829 30.7665C22.2829 30.3801 22.6217 30.064 23.0357 30.064C23.4498 30.064 23.7885 30.3801 23.7885 30.7665C23.7885 31.1528 23.4498 31.4689 23.0357 31.4689Z" fill="#988B8B"/>
<path d="M38.2306 12.1755H25.2463C24.8753 12.1755 24.5718 12.6139 24.5718 13.1496C24.5718 13.6853 24.8753 14.1236 25.2463 14.1236H38.2306C38.6016 14.1236 38.9051 13.6853 38.9051 13.1496C38.9051 12.6139 38.61 12.1755 38.2306 12.1755Z" fill="#988B8B"/>
<path d="M38.2306 17.0457H25.2463C24.8753 17.0457 24.5718 17.484 24.5718 18.0197C24.5718 18.5554 24.8753 18.9937 25.2463 18.9937H38.2306C38.6016 18.9937 38.9051 18.5554 38.9051 18.0197C38.9051 17.4718 38.61 17.0457 38.2306 17.0457Z" fill="#988B8B"/>
<path d="M38.2306 7.79224H25.2463C24.8753 7.79224 24.5718 8.23055 24.5718 8.76628C24.5718 9.302 24.8753 9.74032 25.2463 9.74032H38.2306C38.6016 9.74032 38.9051 9.302 38.9051 8.76628C38.9051 8.23055 38.61 7.79224 38.2306 7.79224Z" fill="#988B8B"/>
<path d="M17.932 11.4841L17.9321 11.484L17.9271 11.4796C17.4263 11.0422 16.7551 10.7623 16.0331 10.7623H14.192V9.05675C14.192 8.35575 13.886 7.73489 13.3979 7.27926C12.91 6.82373 12.2515 6.54341 11.5141 6.54341H10.6027C9.86534 6.54341 9.20684 6.82373 8.71889 7.27926C8.23084 7.73489 7.92479 8.35575 7.92479 9.05675V10.7552H6.09122C5.35383 10.7552 4.69533 11.0356 4.20738 11.4911C3.71933 11.9467 3.41328 12.5676 3.41328 13.2686V14.1194C3.41328 14.8204 3.71933 15.4412 4.20738 15.8969C4.69533 16.3524 5.35383 16.6327 6.09122 16.6327H7.93232V18.3382C7.93232 19.0392 8.23837 19.6601 8.72642 20.1157C9.21437 20.5713 9.87287 20.8516 10.6103 20.8516H11.5216C12.259 20.8516 12.9175 20.5713 13.4055 20.1157C13.8935 19.6601 14.1995 19.0392 14.1995 18.3382V16.6187H16.0407C16.778 16.6187 17.4365 16.3383 17.9245 15.8828C18.4125 15.4272 18.7186 14.8063 18.7186 14.1053V13.2557C18.7265 12.5529 18.4192 11.9388 17.932 11.4841ZM17.2039 13.9194H17.1888V14.1194C17.1888 14.4085 17.0591 14.6739 16.8456 14.8732C16.6326 15.0721 16.3344 15.1991 16.0181 15.1991H13.4422C13.0379 15.1991 12.6773 15.5063 12.6773 15.9265V18.3453C12.6773 18.6344 12.5476 18.8998 12.3341 19.0991C12.1211 19.2979 11.8229 19.425 11.5065 19.425H10.5952C10.2718 19.425 9.98105 19.2983 9.76762 19.0991C9.55465 18.9003 9.42443 18.628 9.42443 18.3453V15.9124C9.42443 15.5078 9.08038 15.185 8.68214 15.185H6.09122C5.76787 15.185 5.47707 15.0584 5.26364 14.8591C5.05067 14.6603 4.92045 14.388 4.92045 14.1053V13.2545C4.92045 12.9654 5.05017 12.7 5.26364 12.5007C5.47664 12.3018 5.77484 12.1748 6.09122 12.1748H8.68214C9.09196 12.1748 9.42443 11.8624 9.42443 11.4685V9.04972C9.42443 8.7606 9.55415 8.49518 9.76762 8.29589C9.98062 8.09704 10.2788 7.97 10.5952 7.97H11.5065C11.8299 7.97 12.1207 8.09664 12.3341 8.29589C12.5471 8.49472 12.6773 8.76702 12.6773 9.04972V11.4685C12.6773 11.8885 13.0379 12.1748 13.4422 12.1748H16.0331C16.3565 12.1748 16.6473 12.3014 16.8607 12.5007C17.0737 12.6995 17.2039 12.9718 17.2039 13.2545V13.9194Z" fill="#988B8B" stroke="#988B8B" stroke-width="0.4"/>
</svg>
